# xmcd CD database file
#
# Track frame offsets:
#	150
#	21188
#	43152
#	59254
#	76555
#	97662
#	113656
#	133259
#	158438
#	173105
#	184143
#	197685
#	216386
#	234603
#	254474
#	271552
#	285409
#	310693
#
# Disc length: 4555 seconds
#
# Revision: 0
# Processed by: cddbd v1.5.2PL0 Copyright (c) Steve Scherf et al.
# Submitted via: CDex 1.51
#
DISCID=e811c912
DTITLE=Diversos - The Collection New Age - Volume I
DYEAR=1900
DGENRE=New Age
TTITLE0=Journey of the Angels
TTITLE1=Seeds of Love
TTITLE2=Caribean Blue
TTITLE3=The Ninth Gate
TTITLE4=Symphony
TTITLE5=Adiemus
TTITLE6=Dreams Are Moore Precious
TTITLE7=Angels Wings
TTITLE8=Anytime Anywhere
TTITLE9=Theme From Harry's Game
TTITLE10=In A Life Time
TTITLE11=Orinoco Flow
TTITLE12=Santa Maria
TTITLE13=I Believe
TTITLE14=De Profund's
TTITLE15=Nocture
TTITLE16=De L'bime Ali Rivage Spentele Stelle
TTITLE17=Água
EXTD=
EXTT0=
EXTT1=
EXTT2=
EXTT3=
EXTT4=
EXTT5=
EXTT6=
EXTT7=
EXTT8=
EXTT9=
EXTT10=
EXTT11=
EXTT12=
EXTT13=
EXTT14=
EXTT15=
EXTT16=
EXTT17=
PLAYORDER=
